<?xml version="1.0" encoding="UTF-8"?>
<svg id="final" xmlns="http://www.w3.org/2000/svg" viewBox="0 0 2478.34 980.91">
  <defs>
    <style>
      .cls-1 {
        fill: #e6e6e6;
      }

      .cls-2 {
        fill: #f8e8ab;
      }
    </style>
  </defs>
  <path class="cls-1" d="M169.57,606.79c15.33,72.7,51.29,143.16,108.54,191.43,38.45,32.56,86.35,52.76,135.85,61,46.46,7.75,94.59,7.1,140.98-.76,111.38-19.48,187.82-90.66,224.5-196.74,6.12-17.89,11.22-36.19,14.23-54.92,0,4.77-.29,9.54-.7,14.3-4.81,52.84-22.96,104.76-53.38,148.42-59.14,85.26-156.01,120.19-256.8,120.11-100.52,1.18-197.78-36.32-256.27-121-33.03-47.55-53.19-104.13-56.95-161.83h0Z"/>
  <path class="cls-1" d="M349.73,875.24c-3.22,11.55-7.21,23.95-11.11,35.32,0,0-2.36-6.53-2.36-6.53,36.71,11.75,75.42,16.35,113.72,19.33,60.82,3.8,131.97,2.73,188.45-21.94,0,0-1.67,6.5-1.67,6.5-4.82-10.82-9.49-21.65-13.67-32.76,3.84,4.54,7.53,9.17,11.17,13.84,3.64,4.65,7.19,9.37,10.73,14.1,1.4,1.86,1.02,4.5-.84,5.89-22.07,16.68-48.64,26.74-75.42,32.99-66.06,14.25-135.83,9.39-199.69-12.12-13.03-4.64-25.84-10.27-37.82-17.45-2.07-1.22-2.75-3.89-1.53-5.95,6.35-10.27,13.12-21.35,20.04-31.22h0Z"/>
  <path class="cls-2" d="M471.49,269.04c1.97,30.65-13.78,68.48-42.65,82.13-4.17,1.89-8.79,3.33-13.31,3.9,3.78-2.65,7.38-5.2,10.68-8.05,23.4-20.33,34.11-49.76,45.28-77.99h0Z"/>
  <g>
    <g>
      <polygon points="380.76 236 29.85 118.09 18.34 153.02 371.6 247.68 380.76 236"/>
      <path d="M380.76,236c-60.96-20.05-205.35-67.25-264.12-86.91,0,0-87.42-29.15-87.42-29.15l2.48-1.24c-3.82,11.65-7.61,23.3-11.49,34.93l-1.37-2.53,88.27,23.83c81.56,21.92,182.73,49.74,264.53,72.57,0,0-.19.06-.19.06l9.31-11.56h0ZM380.76,236l-9.02,11.79-.07.09c.06.03-88.66-22.89-88.65-22.88-82.42-21.46-182.9-48.14-265.19-70.08,0,0-2.02-.54-2.02-.54,4.21-12.94,8.53-25.86,12.8-38.78,100.39,33.72,250.85,85.51,352.15,120.39h0Z"/>
    </g>
    <g>
      <path d="M469.2,265.75l-9.32,7.04,35.21,9.16c.94.24,1.93-.12,2.46-.91l2.4-3.51-30.76-11.77Z"/>
      <path d="M469.2,265.75c-2.13,1.99-6.52,5.92-8.7,7.85,0,0-.36-1.8-.36-1.8l5.33,1.06c9.21,1.91,19.94,4.47,29.06,6.9,0,0,1.09.29,1.09.29.12.03.26-.02.33-.12.78-1.13,1.64-2.36,2.44-3.47,0,0,.88,2.84.88,2.84-9.96-4.08-20.44-8.75-30.09-13.54h0ZM469.2,265.75c11.16,2.96,22.71,6.88,33.64,10.78-.86,1.31-1.93,3.06-2.81,4.32,0,0-.76,1.13-.76,1.13-.91,1.5-2.78,2.29-4.49,1.9-9.61-2.39-20.55-5.48-29.97-8.44-1.35-.44-5.95-1.92-7.26-2.35,3.82-2.51,7.79-5.06,11.66-7.35h0Z"/>
    </g>
  </g>
  <path class="cls-2" d="M429.3,613.81c-46.52,32.79-129.29,77.25-185.23,48.28-22.34-11.58-35.84-34.83-42.35-58.34-8.19-24.88,1.35-51.97,18.83-70.34,13.66-14.68,31.69-24.73,50.77-30.31,78.38-21.5,156.98,21.35,216.02,69.78,13.31,10.8,27.36,20.75,41.93,29.76,46.58,28.19,109.71,56.51,163.22,34.12,12.61-5.49,23.71-14.11,32.67-24.54,15.88-17.51,20.06-42.71,8.29-63.66-22.04-37.96-73.12-49.45-114.12-53.34-15.9-1.43-32.15-1.57-48.15-1.12-21.71.33-43.44-1.65-64.74-6.13-47.05-9.95-97.28-33.86-118.11-79.96-19.25-44.44-20.55-100.19,8.22-140.88,14.41-20.33,37.75-33.79,62.45-36.49,16.35-2.08,31.28-1.26,42.21,12.74,9.33,12.17,10.77,28.37,8.36,43.02-5.02,28.53-23.79,52.94-46.82,69.65-11.43,8.28-23.99,14.91-37.12,20.03,33.35-15.28,64.03-41.46,74.96-77.35,4.82-16.58,5.76-36.42-5.47-50.46-9.21-11.11-21.77-10.43-34.82-8.38-21.87,3.24-42.08,15.43-54.34,33.9-24.88,37.51-22.22,88.2-4.02,127.99,19.72,40.78,65.45,60.56,107.98,69.09,22.25,4.39,45.18,5.69,67.86,4.72,4.77-.16,9.55-.22,14.33-.22,38.64.2,78.42,4.81,113.57,22.5,39.27,19.27,66.5,59.79,49.18,103.83-3.89,9.9-9.9,18.74-17.12,26.48-13.83,15.16-31.98,26.56-51.78,32.01-38.74,10.69-80.03.78-115.84-14.48-34.29-14.78-65.73-34.96-94.45-58.61-54.65-45.72-127.02-88.11-200.44-70.06-32.57,8.29-65.64,35.14-64.83,71.18.02,4.25,1.03,8.53,2.04,12.65,3.26,12.9,8.42,25.66,16.41,36.23,45.37,59.42,150.45,7.84,200.43-23.27h0Z"/>
  <path class="cls-2" d="M480.63,232.88c-28.12-16.07-63.16-19.25-87.8,4.65-17.7,17.13-27.12,40.5-34.14,63.86-2.01,6.82-3.63,13.2-4.51,20.17-5.89,47.63,8.19,98.77,40.92,134.36,32.74,36.26,83.61,51.21,131.5,52.62,29.08.31,58.65-2.61,87.81.11,22.31,2.08,45.5,6.66,64.12,19.89,9.2,6.63,16.79,15.41,21.37,25.74,1.53,3.37,2.75,6.86,3.7,10.39-12.01-28.5-39.34-40.14-68.47-43.07-35.97-4.03-72.58,2.65-108.61,3.87-38.14.19-76.78-7.17-109.96-26.78-61.15-35.31-90.84-111.51-78.82-179.79,2.8-15.07,8.27-29.35,14.53-43.27,8-17.29,18.6-34,33.61-46.13,28.74-23.75,66.91-18.48,94.75,3.38h0Z"/>
  <path class="cls-2" d="M500.31,258.09c-41.71,10.2-76.87,34.03-76.28,80.81.11,8.5,1.15,17.4,2.99,25.66,3.12,12.55,10.96,24.6,19.73,34.43,34.45,38.64,88.1,50.64,138.28,52.08-14.84,3.71-30.24,5.49-45.57,5.36-47.42-.02-97.23-21.92-122.08-63.83-4.16-7.21-7.65-14.96-9.61-23.68-1.94-10.18-2.85-20.13-2.39-30.46.82-22.94,10.5-45.7,28.75-60.1,18.59-14.82,42.79-21.35,66.18-20.27h0Z"/>
  <g>
    <path d="M517.1,262.83L70.57,36.37l-16.73,32.85,454.99,199.02c.89.39,1.93.18,2.59-.52l5.68-4.89Z"/>
    <path d="M517.1,262.83C387.74,198.15,197.06,102.69,69.68,38.12c0,0,2.64-.86,2.64-.86l-16.72,32.85-.97-2.71,114.32,50.2c98.76,43.29,215.32,94.91,313.99,138.95,6.12,2.74,18.79,8.42,24.92,11.17,1.14.61,2.52,1.04,3.52-.04,0,0,5.72-4.84,5.72-4.84h0ZM517.1,262.83l-5.65,4.93c-.44.47-1.12.77-1.79.74-.69-.01-1.27-.4-1.87-.62-14.39-6.12-39.14-16.73-53.81-23.03C326.37,190.18,180.4,126.58,53.04,71.03c0,0-1.93-.84-1.93-.84l.96-1.87,16.74-32.84.89-1.75,1.75.89c127.22,64.52,317.25,162.21,445.64,228.22h0Z"/>
  </g>
  <g>
    <path class="cls-1" d="M1191.06,405.26c-39.91,1.34-66.74,1.68-85.18,1.68l-15.76,36.22c15.76-.67,32.87-1.68,58.35-3.02l2.01,33.54c-34.88,1.68-53.66,2.68-74.79,3.69l-46.28,107.65c29.18-1.01,69.42-3.02,92.9-4.02l.67,33.54c-46.62,2.01-92.56,4.02-146.56,6.71l-1.34-33.54c3.69,0,9.39-.33,16.77-.67l46.62-108.66h-7.04l-.67-33.54c6.04,0,16.1-.33,22.13-.33l16.77-38.57h-7.38l1.34-33.87c11.4,1.01,22.8,1.34,42.26,1.34,18.44,0,43.93-.34,83.84-1.68l1.34,33.54Z"/>
    <path class="cls-1" d="M1235.66,454.89c-21.13,43.26-48.96,113.69-58.35,145.55l-32.2-9.39c9.39-31.86,40.58-109.66,60.37-150.91l30.18,14.76ZM1260.48,396.54l-9.39,20.79-30.18-14.09,9.39-20.79,30.18,14.09Z"/>
    <path class="cls-1" d="M1333.58,521.3c-23.81,17.1-56.34,25.15-78.81,28.51-1.01,5.37-1.68,10.73-1.68,16.77,0,14.42,4.69,21.13,11.74,21.13,5.7,0,14.76-2.68,29.18-17.1l23.48,23.48c-20.12,20.12-37.9,27.16-52.65,27.16-26.16,0-45.27-21.46-45.27-54.67,0-46.62,32.53-91.22,72.44-124.76,19.12-16.1,33.87-21.13,46.28-21.13,23.14,0,34.88,17.77,34.88,36.89,0,22.47-14.09,45.27-39.57,63.72ZM1338.28,454.22c-19.79,0-57.68,45.61-68.08,60.7,28.84-6.37,69.42-29.51,69.42-57.35,0-1.34,0-3.35-1.34-3.35Z"/>
    <path class="cls-1" d="M1477.45,552.15c-8.72,22.81-17.1,48.29-20.12,59.02l-32.2-9.39c5.37-18.44,14.09-44.27,20.79-61.71,4.02-10.4,14.76-38.23,27.84-68.75l-.34-.34c-19.12,18.11-37.56,32.53-52.65,49.63-15.09,17.1-25.82,35.88-35.55,58.69-3.35,8.05-7.04,16.43-9.72,25.49l-31.86-10.73c5.37-14.42,11.07-28.84,15.76-41.25,5.03-13.41,21.13-49.97,29.18-70.43,6.37-16.1,14.76-37.23,17.44-47.62l32.87,8.05c-1.01,5.03-10.4,27.16-14.42,37.56,17.77-17.77,36.22-36.89,58.69-51.65,12.41-8.05,23.48-8.05,29.51-2.35,7.04,6.37,9.05,16.43,4.36,27.5-10.4,23.81-26.83,64.73-39.57,98.26Z"/>
    <path class="cls-1" d="M1751.1,498.49c-21.13,11.07-47.62,17.44-71.77,21.13,10.4,24.15,32.53,67.74,47.96,89.21l-27.5,19.45c-20.12-27.5-38.23-66.07-49.3-91.55l-32.53,77.47-30.85-12.74,79.48-188.81c-5.7.67-11.4,1.34-17.77,2.35l-4.69-33.54c52.65-7.04,77.47-8.05,96.59-8.38,37.56-.67,61.04,27.16,61.04,56.68,0,31.86-22.47,53.99-50.64,68.75ZM1741.37,406.6c-9.73,0-20.12.34-36.89,1.68l-32.87,78.48c22.81-3.02,46.62-8.38,64.06-17.77,19.12-10.4,32.53-24.48,32.53-39.24,0-11.74-8.72-23.14-26.83-23.14Z"/>
    <path class="cls-1" d="M1945.27,446.17c-5.37,14.76-13.75,34.54-24.15,53.32-12.74,29.85-28.17,70.43-44.27,117.04l-29.85-10.06,15.43-41.25c-24.48,33.2-48.96,51.98-66.07,51.98-22.47,0-34.21-19.12-34.21-43.6,0-66.74,97.93-145.21,159.63-151.59l1.34,14.42,22.13,9.73ZM1833.93,507.21c-28.17,27.84-38.57,51.98-38.57,67.07,0,4.69.67,8.05,5.37,8.05,13.08,0,28.51-20.79,35.88-28.84,20.46-22.13,34.54-37.23,45.27-53.66,2.68-4.02,5.37-8.05,7.71-12.07,4.02-9.73,8.05-18.44,11.74-26.49-21.8,8.38-46.62,25.15-67.41,45.95Z"/>
    <path class="cls-1" d="M2180.02,467.64c-15.76,24.48-53.66,122.07-61.04,147.23l-32.2-8.72c11.07-37.9,30.18-79.82,45.27-117.04l-.67-.34c-36.55,27.5-56.34,44.94-74.45,74.45-6.04,15.43-11.74,30.18-16.1,42.26l-32.2-9.05c3.35-15.43,8.72-30.18,16.1-43.6,2.68-6.71,16.77-40.91,26.83-64.39l-.34-.34c-41.58,35.88-60.37,55.34-77.13,82.5-4.36,10.73-9.05,22.13-16.77,39.91l-31.86-10.4c2.68-12.07,8.72-29.85,20.12-47.96,13.08-31.19,35.55-83.17,50.64-118.72l30.85,13.41c-6.37,14.76-17.1,35.55-20.79,43.93,17.1-17.1,39.57-37.56,57.68-48.63,6.71-4.02,14.09-6.37,20.79-6.37,9.73,0,17.44,4.7,18.11,14.09.33,5.03-9.39,24.48-18.44,40.91,20.46-17.77,41.92-35.21,62.71-48.63,6.37-4.02,11.74-6.04,16.77-6.04,8.72,0,20.79,6.04,20.79,16.77,0,5.7-2.68,11.74-4.7,14.76Z"/>
    <path class="cls-1" d="M2292.36,521.3c-23.81,17.1-56.34,25.15-78.81,28.51-1.01,5.37-1.68,10.73-1.68,16.77,0,14.42,4.69,21.13,11.74,21.13,5.7,0,14.76-2.68,29.18-17.1l23.48,23.48c-20.12,20.12-37.9,27.16-52.65,27.16-26.16,0-45.27-21.46-45.27-54.67,0-46.62,32.53-91.22,72.44-124.76,19.12-16.1,33.87-21.13,46.28-21.13,23.14,0,34.88,17.77,34.88,36.89,0,22.47-14.09,45.27-39.57,63.72ZM2297.05,454.22c-19.79,0-57.68,45.61-68.08,60.7,28.84-6.37,69.42-29.51,69.42-57.35,0-1.34,0-3.35-1.34-3.35Z"/>
    <path class="cls-1" d="M2436.23,552.15c-8.72,22.81-17.1,48.29-20.12,59.02l-32.2-9.39c5.37-18.44,14.09-44.27,20.79-61.71,4.02-10.4,14.76-38.23,27.84-68.75l-.34-.34c-19.12,18.11-37.56,32.53-52.65,49.63-15.09,17.1-25.82,35.88-35.55,58.69-3.35,8.05-7.04,16.43-9.72,25.49l-31.86-10.73c5.37-14.42,11.07-28.84,15.76-41.25,5.03-13.41,21.13-49.97,29.18-70.43,6.37-16.1,14.76-37.23,17.44-47.62l32.87,8.05c-1.01,5.03-10.4,27.16-14.42,37.56,17.77-17.77,36.22-36.89,58.69-51.65,12.41-8.05,23.48-8.05,29.51-2.35,7.04,6.37,9.05,16.43,4.36,27.5-10.4,23.81-26.83,64.73-39.57,98.26Z"/>
  </g>
</svg>