<?xml version="1.0" encoding="UTF-8"?>
<svg id="without_title" data-name="without title" xmlns="http://www.w3.org/2000/svg" viewBox="0 0 974.57 980.91">
  <defs>
    <style>
      .cls-1 {
        fill: #e6e6e6;
      }

      .cls-2 {
        fill: #f8e8ab;
      }
    </style>
  </defs>
  <path class="cls-1" d="M169.57,606.79c13.94,73.35,49.57,144.57,106.73,193.48,28.08,24.02,61.33,41.82,96.62,52.64,57.61,17.6,119.99,18.99,179.23,9.47,90.63-14.81,164.17-66.2,206.38-148.41,17.3-33.41,29.58-69.86,35.16-107.17-.68,19.04-3.93,37.98-8.48,56.58-13.92,56.2-42.78,109.39-86.19,148.33-58.34,53.36-138.6,74.51-216.23,74.42-99.58,1.19-195.81-35.52-254.43-118.88-33.26-46.99-53.9-103.16-58.78-160.45h0Z"/>
  <path class="cls-1" d="M349.73,875.24c-3.83,11.68-8.03,23.24-12.35,34.74,0,0-1.7-4.7-1.7-4.7,69.32,23.74,167.07,29.07,239.23,17.04,8.74-1.58,19.61-3.95,28.14-6.32,12.35-3.44,24.47-7.76,36.07-13.43l-1.2,4.68c-5.13-10.6-10.14-21.27-14.82-32.08,3.58,4.69,7.08,9.44,10.53,14.21,3.45,4.77,6.85,9.58,10.21,14.4,1,1.43.65,3.39-.78,4.39-11.16,7.89-23.43,14.2-36.14,19.25-73.05,27.77-163.5,23.43-237.25.17-12.87-4.29-25.52-9.49-37.44-16.15-1.57-.87-2.14-2.85-1.27-4.42,6.07-10.69,12.25-21.33,18.77-31.77h0Z"/>
  <path class="cls-2" d="M471.49,269.04c1.97,30.65-13.78,68.48-42.65,82.13-4.17,1.89-8.79,3.33-13.31,3.9,3.78-2.65,7.38-5.2,10.68-8.05,23.4-20.33,34.11-49.76,45.28-77.99h0Z"/>
  <g>
    <g>
      <polygon points="380.76 236 29.85 118.09 18.34 153.02 371.6 247.68 380.76 236"/>
      <path d="M380.76,236c-60.96-20.05-205.35-67.25-264.12-86.91,0,0-87.42-29.15-87.42-29.15,0,0,2.48-1.24,2.48-1.24-3.82,11.65-7.61,23.3-11.49,34.93,0,0-1.37-2.53-1.37-2.53l88.27,23.83c81.56,21.92,182.73,49.74,264.53,72.57,0,0-.19.06-.19.06,0,0,9.31-11.56,9.31-11.56h0ZM380.76,236s-9.02,11.79-9.02,11.79c0,0-.07.09-.07.09.06.03-88.66-22.89-88.65-22.88-82.42-21.46-182.9-48.14-265.19-70.08,0,0-2.02-.54-2.02-.54,4.21-12.94,8.53-25.86,12.8-38.78,100.39,33.72,250.85,85.51,352.15,120.39h0Z"/>
    </g>
    <g>
      <path d="M469.2,265.75l-9.32,7.04,35.21,9.16c.94.24,1.93-.12,2.46-.91l2.4-3.51-30.76-11.77Z"/>
      <path d="M469.2,265.75c-2.13,1.99-6.52,5.92-8.7,7.85,0,0-.36-1.8-.36-1.8l5.33,1.06c9.21,1.91,19.94,4.47,29.06,6.9,0,0,1.09.29,1.09.29.12.03.26-.02.33-.12.78-1.13,1.64-2.36,2.44-3.47,0,0,.88,2.84.88,2.84-9.96-4.08-20.44-8.75-30.09-13.54h0ZM469.2,265.75c11.16,2.96,22.71,6.88,33.64,10.78-.86,1.31-1.93,3.06-2.81,4.32,0,0-.76,1.13-.76,1.13-.91,1.5-2.78,2.29-4.49,1.9-9.61-2.39-20.55-5.48-29.97-8.44-1.35-.44-5.95-1.92-7.26-2.35,3.82-2.51,7.79-5.06,11.66-7.35h0Z"/>
    </g>
  </g>
  <path class="cls-2" d="M429.3,613.81c-46.38,32.31-129.24,76.4-184.67,47.59-22.07-11.48-35.36-34.47-41.75-57.75-8.02-24.31,1.32-51.16,18.46-69.13,13.45-14.5,31.27-24.41,50.11-29.91,79.06-21.56,157.89,22.51,217.08,71.59,26.84,21.36,56.45,39.8,87.96,53.25,39.94,16.84,88.91,27.26,127.73,3.41,10.87-6.72,20.58-15.85,27.95-26.37,11.97-17.21,13.71-39.61,2.59-57.69-13.67-22.46-39.31-34.67-63.98-41.79-26.31-7.42-53.9-9.85-81.22-10-3.47,0-10.35.07-13.81.17-23.99.73-48.14-1.77-71.46-7.54-46.27-11.58-94.04-37.22-114.66-82.55-19.11-43.96-20.41-99.14,8.05-139.43,14.21-20.1,37.24-33.4,61.64-36.11,16.04-2.06,30.66-1.33,41.4,12.43,9.15,11.93,10.61,28.01,8.26,42.42-4.91,28.4-23.52,52.74-46.35,69.48-11.37,8.32-23.88,15-36.95,20.2,33.49-15.09,64.33-41.21,75.47-77.11,4.98-16.76,5.98-36.76-5.3-51.11-9.35-11.43-22.09-10.98-35.48-8.92-22.14,3.16-42.69,15.4-55.22,34-20.4,29.85-22.43,69.44-13.68,103.81,4.5,17.28,11.52,33.96,23.26,47.61,40.5,46.18,108.4,60.97,167.7,57.92,55.33-1.02,133.76,6.89,165.97,58.39,14.26,23.2,12.44,52.49-2.97,74.74-14.35,20.72-36.18,36.44-60.58,43-38.28,10.33-79,.39-114.42-14.72-32.97-14.24-63.31-33.54-91.14-56.05-55.7-46.83-129.56-90.88-204.68-71.98-37.3,9.55-74.91,44.22-63.2,85.65,5.43,21.49,16.76,42.82,36.6,53.94,52.11,28.81,135.49-12.68,181.3-41.46h0Z"/>
  <path class="cls-2" d="M480.63,232.88c-18.25-10.72-40.66-16.62-61.46-11.34-38.44,10.45-55.19,53.81-64.59,88.84-10.8,50.11,3.75,107.9,38.13,145.88,32.76,36.9,83.58,52.32,131.94,53.91,49.02,1.57,108.51-2.86,149.39,29.12,11.55,9.34,20.08,22.29,23.99,36.52-11.17-27.91-37.67-43.04-65.91-48.45-35.51-7.41-71.71-3.8-107.79-3.58-80.03.05-151.2-36.82-177.6-115.81-9.56-28.7-12.51-59.81-7.2-89.66,1.32-7.44,3.53-14.8,6.02-21.94,8.66-24.65,20.76-49.45,41.34-66.36,28.28-23.39,66.01-18.31,93.73,2.85h0Z"/>
  <path class="cls-2" d="M500.31,258.09c-27.74,5.74-57.76,20.18-70.61,46.29-7.92,15.75-8.75,33.99-6.28,51.25,2.08,17.47,10.05,33.91,20.38,48.15,21.28,29.74,54.44,48.93,90.25,55.76,14.57,2.97,29.64,4.04,44.91,4.24-15.02,3.28-30.5,4.53-45.92,3.51-39.5-2.18-78.16-22.06-101.91-54.12-15.31-20.46-23.62-41.79-23.95-67.61-.91-29.71,11.29-57.35,37.26-72.96,16.74-10.07,36.5-14.95,55.87-14.51h0Z"/>
  <g>
    <path d="M517.1,262.83L70.57,36.37l-16.73,32.85,454.99,199.02c.89.39,1.93.18,2.59-.52l5.68-4.89Z"/>
    <path d="M517.1,262.83C387.74,198.15,197.06,102.69,69.68,38.12c0,0,2.64-.86,2.64-.86,0,0-16.72,32.85-16.72,32.85,0,0-.97-2.71-.97-2.71,0,0,114.32,50.2,114.32,50.2,98.76,43.29,215.32,94.91,313.99,138.95,6.12,2.74,18.79,8.42,24.92,11.17,1.14.61,2.52,1.04,3.52-.04,0,0,5.72-4.84,5.72-4.84h0ZM517.1,262.83s-5.65,4.93-5.65,4.93c-.44.47-1.12.77-1.79.74-.69-.01-1.27-.4-1.87-.62-14.39-6.12-39.14-16.73-53.81-23.03C326.37,190.18,180.4,126.58,53.04,71.03c0,0-1.93-.84-1.93-.84,0,0,.96-1.87.96-1.87l16.74-32.84s.89-1.75.89-1.75l1.75.89c127.22,64.52,317.25,162.21,445.64,228.22h0Z"/>
  </g>
</svg>